<svg xmlns="http://www.w3.org/2000/svg" width="42" height="42" viewBox="0 0 42 42" fill='#000000'><g transform="translate(0 -48)"><g transform="translate(6.908 51.599)"><path class="a" d="M94.092,80C86.309,80,80,87.791,80,97.4s6.309,17.4,14.092,17.4,14.092-7.791,14.092-17.4S101.871,80.011,94.092,80Zm0,33.063c-7,0-12.683-7.012-12.683-15.661S87.087,81.74,94.092,81.74s12.683,7.012,12.683,15.661S101.093,113.052,94.092,113.063Z" transform="translate(-80 -80)"/></g><g transform="translate(34.803 48.001)"><g transform="translate(0 0)"><path class="a" d="M421.832,48.178a2.248,2.248,0,0,0-2.408.465A11.148,11.148,0,0,0,416,56.687V68.136a2.631,2.631,0,0,0,1.8,2.464V87.386a2.7,2.7,0,0,0,5.4,0V50.163A2.142,2.142,0,0,0,421.832,48.178ZM421.4,87.386a.9.9,0,0,1-1.8,0V70.761h1.8Zm0-18.375h-2.7a.888.888,0,0,1-.9-.875V56.687a9.434,9.434,0,0,1,2.9-6.806.394.394,0,0,1,.28-.12.452.452,0,0,1,.167.034.381.381,0,0,1,.253.368Z" transform="translate(-416 -48.013)"/></g></g><g transform="translate(12.047 62.791)"><path class="a" d="M147.6,184a3.6,3.6,0,1,0,3.6,3.6A3.6,3.6,0,0,0,147.6,184Zm0,5.4a1.8,1.8,0,1,1,1.8-1.8A1.8,1.8,0,0,1,147.6,189.4Z" transform="translate(-144 -184)"/></g><g transform="translate(8.695 58.306)"><g transform="translate(0 0)"><path class="a" d="M126.472,149.1l-1.582-1.582a1,1,0,0,1-.3-.713A2.812,2.812,0,0,0,121.787,144h-3.6a2.826,2.826,0,0,0-1.986.822l-3.381,3.381a2.789,2.789,0,0,0-.822,1.986v3.816a2.789,2.789,0,0,0,.822,1.986l1.582,1.582a1,1,0,0,1,.3.713,2.812,2.812,0,0,0,2.808,2.808h1.8a2.826,2.826,0,0,0,1.986-.822l2.481-2.481a1.017,1.017,0,0,1,.713-.3,2.812,2.812,0,0,0,2.808-2.808v-3.6A2.789,2.789,0,0,0,126.472,149.1Zm-.977,5.584a1.009,1.009,0,0,1-1.009,1.009,2.826,2.826,0,0,0-1.986.822L120.02,159a1.017,1.017,0,0,1-.713.3h-1.8a1.009,1.009,0,0,1-1.009-1.009,2.789,2.789,0,0,0-.822-1.986l-1.582-1.582a1,1,0,0,1-.3-.713v-3.816a1,1,0,0,1,.3-.713l3.381-3.381a1.017,1.017,0,0,1,.713-.3h3.6a1.009,1.009,0,0,1,1.009,1.009,2.789,2.789,0,0,0,.822,1.986l1.582,1.582a1,1,0,0,1,.3.713Z" transform="translate(-112 -144)"/></g></g><g transform="translate(13.518 66.925)"><g transform="translate(0 0)"><path class="a" d="M191.932,227.864l-3.6-3.6a.9.9,0,0,0-1.536.636v1.8a.9.9,0,0,1-.9.9,2.7,2.7,0,0,0-2.7,2.7.9.9,0,0,1-.9.9,2.7,2.7,0,0,0-2.7,2.7.9.9,0,0,1-.9.9h-1.8a.9.9,0,0,0-.636,1.536l3.6,3.6a.9.9,0,0,0,.636.264h1.8a2.7,2.7,0,0,0,2.7-2.7.9.9,0,0,1,.9-.9,2.7,2.7,0,0,0,2.7-2.7.9.9,0,0,1,.9-.9,2.7,2.7,0,0,0,2.7-2.7v-1.8A.9.9,0,0,0,191.932,227.864ZM190.4,230.3a.9.9,0,0,1-.9.9,2.7,2.7,0,0,0-2.7,2.7.9.9,0,0,1-.9.9,2.7,2.7,0,0,0-2.7,2.7.9.9,0,0,1-.9.9h-1.427l-1.822-1.822A2.7,2.7,0,0,0,181.4,233.9a.9.9,0,0,1,.9-.9,2.7,2.7,0,0,0,2.7-2.7.9.9,0,0,1,.9-.9,2.7,2.7,0,0,0,2.677-2.349l1.822,1.822Z" transform="translate(-176.002 -224.002)"/></g></g><g transform="translate(18.011 54.893)"><path class="a" d="M246.288,121.423l-.155-.154-4.5-4.5-3.753-3.753a3.444,3.444,0,1,0-4.87,4.872l.155.154,4.5,4.5,3.753,3.753a3.444,3.444,0,1,0,4.87-4.872Zm-11.895-7.233a1.645,1.645,0,0,1,1.049-.381h0a1.659,1.659,0,0,1,1.163.481l2.218,2.218h-4.644A1.645,1.645,0,0,1,234.393,114.189Zm1.58,4.117h4.653l2.7,2.7h-4.653Zm8.932,6.816a1.645,1.645,0,0,1-1.049.381h0a1.657,1.657,0,0,1-1.163-.482l-2.218-2.217h4.644A1.645,1.645,0,0,1,244.9,125.122Z" transform="translate(-232.002 -112.01)"/></g><g transform="translate(0 48)"><path class="a" d="M7.2,48v7H5.4V48H3.6v7H1.8V48H0V59.375a4.318,4.318,0,0,0,1.8,3.477V87.375A2.663,2.663,0,0,0,4.5,90a2.663,2.663,0,0,0,2.7-2.625V62.852A4.318,4.318,0,0,0,9,59.375V48ZM5.4,87.375a.9.9,0,0,1-1.8,0V63.75H5.4Zm1.8-28A2.663,2.663,0,0,1,4.5,62a2.663,2.663,0,0,1-2.7-2.625V56.75H7.2Z" transform="translate(0 -48)"/></g></g></svg>