<svg xmlns="http://www.w3.org/2000/svg" width="42" height="42" viewBox="0 0 512 512"><path d="M512 271v-15c0-68-27-132-75-181a254 254 0 00-362 0C27 124 0 188 0 256v15h30v33a45 45 0 000 84v33H0v15c0 42 34 76 76 76h360c42 0 76-34 76-76v-15h-30v-33a45 45 0 000-84v-33zM256 30c67 0 127 29 168 75a225 225 0 01-336 0c41-46 101-75 168-75zM69 129a255 255 0 00374 0c22 33 36 71 39 112H30c3-41 17-79 39-112zM45 331h65c12 0 23 5 32 13l17 17H45a15 15 0 010-30zm15 60h129l31 30H60zm376 91H76c-20 0-37-13-43-31h446c-6 18-23 31-43 31zm-144-61l31-30h129v30zm175-60H353l17-17c9-8 20-13 32-13h65a15 15 0 010 30zm-15-60h-50c-20 0-39 8-53 22l-93 92-93-92a75 75 0 00-53-22H60v-30h392z"/></svg>