<svg viewBox="0 0 60 60" width="42" height="42" xmlns="http://www.w3.org/2000/svg"><path d="m35 0c-8.6839399-.00591368-16.747994 4.49798952-21.2973365 11.894903-4.54934242 7.3969135-4.93126424 16.6255781-1.0086635 24.373097l-1.284 1.278c-1.171477 1.1681052-1.49724913 2.939541-.818 4.448l-9.059 9.059c-1.49768218 1.5003987-1.94442861 3.755071-1.13202689 5.7131955s2.72406278 3.2343227 4.84402689 3.2338045c1.38825448.0040273 2.7204814-.5472266 3.7-1.531l9.067-9.069c1.5063792.6920868 3.2849861.3653223 4.447-.817l1.272-1.279c9.2297874 4.6732253 20.3845251 3.1787583 28.0586938-3.7591913 7.6741688-6.9379496 10.2822651-17.8859831 6.5604212-27.5387489-3.721844-9.65276587-13.0046855-16.01597717-23.350115-16.0060598zm-27.467 57.053c-1.28474081 1.2251695-3.30661447 1.2207607-4.586-.01-1.26017095-1.2650573-1.26017095-3.3109427 0-4.576l8.863-8.867 4.59 4.59zm13.513-9.884c-.7168539.7133907-1.8525212.7819593-2.65.16-.0678815-.0457858-.1311761-.098029-.189-.156l-5.381-5.381c-.0686161-.0701843-.1302398-.146879-.184-.229-.5935742-.7917257-.5156233-1.8992252.183-2.6l.882-.877c2.0601594 3.339134 4.871866 6.1508406 8.211 8.211zm13.954.831c-12.7025492 0-23-10.2974508-23-23s10.2974508-23 23-23 23 10.2974508 23 23c-.0143284 12.6966095-10.3033905 22.9856716-23 23z"/><path d="M18.362 14.911c.3340891.0002731.6462465-.1663109.832-.444 2.750334-4.1454158 7.0219666-7.0415475 11.891-8.062.3549773-.06807421.6455925-.32240593.7601272-.66522482.1145346-.3428189.0351606-.72076279-.2076091-.98854229-.2427697-.26777951-.6111462-.38371286-.9635181-.30323289-5.3810898 1.12626884-10.1023052 4.32607596-13.142 8.907-.2050886.306593-.2247444.7011912-.0511397 1.0266478.1736047.3254565.5122761.5289163.8811397.5293522zM44.207 6.126h-.007l-.021-.011c-.0635711-.03283073-.1306686-.05832778-.2-.076-.3224122-.07805744-.6625484.0088496-.908.232l-27.484 24.979c-.2451111.2230042-.3638315.5529495-.317.881.0108628.0715269.0296449.1416242.056.209l.009.022v.01c3.3120643 8.8332763 12.1080228 14.373839 21.5054503 13.5462549 9.3974276-.8275841 17.0896541-7.8201782 18.8069094-17.0963614 1.7172554-9.2761831-2.9619737-18.5590456-11.4403597-22.6958935zm-.933 2.658c1.6314436 5.7325919.4801322 11.8984819-3.1100666 16.6560749s-9.2037149 7.5561915-15.1639334 7.5599251c-2.3713409.0078896-4.7227405-.4332099-6.93-1.3zm-8.274 35.216c-7.0310141-.0285457-13.4778222-3.917682-16.782-10.124 2.1826752.7482403 4.4746383 1.1280939 6.782 1.124 6.4331577.0175107 12.517444-2.9225855 16.501228-7.9738517 3.9837839-5.0512662 5.4250153-11.6532021 3.908772-17.9051483 7.0281207 4.600185 10.199114 13.271105 7.7968285 21.3200308-2.4022856 8.0489258-9.8070569 13.5633989-18.2068285 13.5589692zM7.707 52.293c-.39049985-.3903819-1.02350015-.3903819-1.414 0l-2 2c-.25995658.2510745-.3642126.6228779-.27269716.9725073.09151544.3496295.3645604.6226744.71418984.7141899.34962943.0915154.72143285-.0127406.97250732-.2726972l2-2c.39038194-.3904999.39038194-1.0235001 0-1.414z"/><circle cx="41" cy="16" r="1"/><circle cx="36" cy="20" r="1"/><circle cx="35" cy="5" r="1"/><circle cx="28" cy="38" r="1"/><circle cx="49" cy="31" r="1"/><circle cx="44" cy="31" r="1"/><circle cx="29" cy="28" r="1"/><circle cx="49" cy="20" r="1"/><path d="m41.238 37c-.4937439-.2474057-1.0945647-.047729-1.342.446-.2198337.4411618-.7283399.6563444-1.1980642.5069801s-.760558-.6187232-.6852178-1.1058314c.0753402-.4871083.494382-.8466719.987282-.8471487.5522847 0 1-.4477153 1-1s-.4477153-1-1-1c-1.4781846.0006891-2.7355733 1.0780176-2.9629099 2.5386162-.2273367 1.4605986.6431386 2.8691211 2.0511875 3.3190416 1.408049.4499205 2.9339882-.1928643 3.5957224-1.5146578.1191251-.2372065.1390544-.5120425.0553967-.7639534s-.2640376-.4602258-.5013967-.5790466z"/></svg>