<svg xmlns="http://www.w3.org/2000/svg" width="42" height="42" viewBox="0 0 512.3 512.3"><path d="M511 294l-7-4h-21l29-127c1-4 0-9-3-13-2-4-6-7-11-7l-33-6h-4V61c0-5-2-10-5-13s-8-5-12-5h-33c-10 0-17 8-17 17l-1 21-15-4a17 17 0 00-21 14l-2 11-3-1-37-6v-9a17 17 0 00-17-18h-8l11-35a17 17 0 00-11-22L257 1a17 17 0 00-21 11l-22 71V59c-1-9-8-16-18-16h-34a17 17 0 00-17 17l2 52-39 6c-9 2-15 10-14 19H68c-9 0-17 7-17 17v52l-9-6c-3-3-8-4-12-3-5 0-9 3-11 6L3 225c-5 8-4 18 4 24l44 34v7H9a9 9 0 00-8 11l44 153c10 34 42 58 78 58h267c36 0 67-24 77-58l45-153c1-2 0-5-1-7zm-50-133v-1l1-6 33 6-29 130h-37l32-129zM411 61v-1h32l1 1v99l-21 83-17-21 19-117c2-9-4-17-13-19l-2-1 1-24zm-37 33l25 6 9 2-17 102-18-23c-3-3-8-6-13-6h-1l15-81zm-15 98h1l58 71-7 27h-11l-51-61-13-15 23-22zm18 98h-34l4-35 30 35zm-63-178l35 6-8 61h-1v2l-1 7-15 14c-7 6-7 16-1 23l7 9-10 56h-12l6-178zm-16-27l-8 205h-34l8-205h34zm-46-68l32 11-12 40h-8c-9 0-17 8-17 17v9h-18l23-77zm-6 94l-7 179h-17l-7-179h31zm-50-51l8 230h-34l-8-230h34zm-49 69l6 161h-26l-16-155 36-6zm-79 25h28l9 92-37-27v-65zm-51 81l15-22 75 56 3 21H88l-71-55zm434 214c-8 27-33 46-61 46H123c-28 0-53-19-62-46L20 307h472l-41 142z"/><path d="M95 433c4 17 19 28 37 28h47a9 9 0 000-17h-47c-10 0-18-6-21-15l-17-64a9 9 0 00-17 4l18 64zm118 28h9a9 9 0 000-17h-9a9 9 0 000 17z"/></svg>