<svg xmlns="http://www.w3.org/2000/svg" viewBox="0 0 42 42" width="42" height="42"><defs/><path class="a" d="M106.457,189.032a.8.8,0,0,0-1.082.316l-.016.029a.8.8,0,1,0,1.4.766l.016-.029A.8.8,0,0,0,106.457,189.032Z" transform="translate(-97 -174)"/><path class="a" d="M37.95,39.482A18.662,18.662,0,0,0,27.51,26.513,6.951,6.951,0,0,0,21,21.331a6.939,6.939,0,0,0-6.51,5.185,17.8,17.8,0,0,0-7.784,6.708,19.8,19.8,0,0,0-2.659,6.258A4.82,4.82,0,0,0,4.05,49C5.993,57.23,12.856,63.331,21,63.331S36.007,57.23,37.95,49a4.82,4.82,0,0,0,0-9.516ZM1.75,44.24a2.84,2.84,0,0,1,1.932-2.762q-.113.852-.156,1.72c0,.008,0,.016,0,.024q-.008.158-.013.316c0,.04,0,.08,0,.12,0,.076,0,.151-.006.227q0,.178,0,.355c0,.145,0,.289.005.434q0,.068,0,.135,0,.158.011.315c0,.045,0,.089.005.134q.01.2.023.393c0,.062.009.123.014.184q.009.117.019.233c.006.068.012.137.019.2s.016.16.025.239q.017.157.037.312c.007.059.014.119.022.178A2.84,2.84,0,0,1,1.75,44.24ZM21,23.24a5.015,5.015,0,0,1,4.243,2.491h-.1a5.231,5.231,0,0,0-4.933,5.431,5.756,5.756,0,0,0,.934,3.17l-.145,0a5.338,5.338,0,0,1-5.085-5.548A5.338,5.338,0,0,1,21,23.24ZM36.744,44.692c0,.023,0,.046,0,.07,0,.128-.008.256-.014.384,0,.023,0,.046,0,.068-.007.128-.014.255-.023.383,0,.026,0,.051-.006.077q-.014.185-.031.37c0,.034-.007.068-.011.1-.011.113-.023.225-.037.338-.006.047-.012.094-.018.141-.012.1-.025.194-.039.291-.009.063-.019.126-.029.189-.012.078-.024.157-.037.235s-.027.159-.042.238c-.011.059-.021.119-.033.178C34.927,55.549,28.58,61.422,21,61.422S7.064,55.541,5.579,47.739c-.013-.071-.026-.142-.038-.213s-.025-.136-.036-.2c-.016-.1-.031-.193-.045-.29-.007-.044-.014-.089-.02-.133q-.026-.184-.048-.368c0-.021-.006-.042-.008-.062q-.026-.217-.047-.436v0c-.057-.594-.085-1.192-.085-1.79,0-.135,0-.27.005-.4q0-.066,0-.133,0-.136.01-.272c0-.053,0-.106.007-.158,0-.08.009-.161.015-.241q.014-.208.031-.415c0-.016,0-.032,0-.047a17.317,17.317,0,0,1,8.84-13.81c0,.01,0,.02,0,.03a8.068,8.068,0,0,0,.245,1.974A14.191,14.191,0,0,0,10.3,34.385a1.015,1.015,0,0,0,.1,1.345.829.829,0,0,0,.564.225.845.845,0,0,0,.669-.339,12.434,12.434,0,0,1,3.45-3.085A6.758,6.758,0,0,0,21,36.245a6.307,6.307,0,0,0,2.256-.416.942.942,0,0,0,.58-.788.988.988,0,0,0-.394-.915,3.6,3.6,0,0,1-1.481-2.962,3.4,3.4,0,0,1,3.122-3.521A16.632,16.632,0,0,1,36.416,40.715c.02.1.039.207.057.311.009.054.018.109.027.163.014.085.028.17.04.255.008.051.015.1.022.153q.02.144.038.288c.005.04.01.08.015.12q.05.419.081.84c0,.032,0,.065.006.1q.011.162.02.324c0,.042,0,.084.006.126,0,.1.008.206.011.309,0,.04,0,.08,0,.119,0,.14.005.28.005.42S36.748,44.542,36.744,44.692ZM38.317,47c.01-.072.018-.145.027-.217s.018-.153.027-.23q.016-.144.03-.289.009-.095.017-.19.011-.125.02-.249c0-.058.009-.115.013-.173q.014-.2.023-.4c0-.043,0-.086.005-.129q.007-.16.011-.32,0-.067,0-.134c0-.145.005-.289.005-.434q0-.189,0-.378c0-.046,0-.091,0-.137q0-.119-.007-.237c0-.056,0-.112-.007-.169s-.006-.136-.01-.2-.007-.122-.011-.183-.008-.125-.013-.188-.009-.127-.014-.19-.011-.122-.016-.183-.011-.126-.017-.189-.015-.142-.023-.213-.017-.157-.027-.236-.021-.171-.032-.257a2.941,2.941,0,0,1,0,5.525Z" transform="translate(0 -21)"/><path class="a" d="M141.449,260.418a3.188,3.188,0,0,0-6.159,0,.8.8,0,1,0,1.54.413,1.594,1.594,0,0,1,3.079,0,.8.8,0,0,0,1.54-.413Z" transform="translate(-124 -236)"/><path class="a" d="M296.688,258.055a3.193,3.193,0,0,0-3.079,2.363.8.8,0,0,0,1.54.413,1.594,1.594,0,0,1,3.079,0,.8.8,0,1,0,1.54-.413A3.193,3.193,0,0,0,296.688,258.055Z" transform="translate(-269 -236)"/><path class="a" d="M220.046,364.182a.8.8,0,0,0-.976.564,1.594,1.594,0,0,1-3.079,0,.8.8,0,1,0-1.54.413,3.188,3.188,0,0,0,6.159,0A.8.8,0,0,0,220.046,364.182Z" transform="translate(-197 -333)"/></svg>