<svg xmlns="http://www.w3.org/2000/svg" viewBox="-79 0 512 512"><path d="M 353.105469 88.277344 L 176.550781 88.277344 L 176.550781 512 L 353.105469 512 Z M 229.515625 211.863281 L 194.207031 141.242188 Z M 291.308594 194.207031 C 291.308594 203.957031 283.40625 211.863281 273.65625 211.863281 C 263.90625 211.863281 256 203.957031 256 194.207031 C 256 203.957031 263.90625 211.863281 273.65625 211.863281 C 283.40625 211.863281 291.308594 203.957031 291.308594 194.207031 Z M 291.308594 194.207031" fill="#ffe169"/><path d="M 35.308594 414.898438 L 176.550781 414.898438 L 176.550781 88.277344 L 0 88.277344 L 0 512 L 176.550781 512 L 176.550781 414.898438 Z M 141.242188 176.550781 L 141.242188 141.242188 L 141.242188 211.863281 Z M 61.792969 141.242188 L 88.277344 185.378906 L 114.757812 141.242188 L 88.277344 185.378906 Z M 61.792969 141.242188" fill="#ffda44"/><path d="M 176.550781 36.351562 L 0 88.277344 L 176.550781 88.277344 Z M 176.550781 36.351562" fill="#ffaf46"/><path d="M 300.136719 88.277344 L 300.136719 0 L 176.550781 36.351562 L 176.550781 88.277344 Z M 300.136719 88.277344" fill="#ffbf6b"/><path d="M114.757812 220.691406C109.882812 220.691406 105.929688 216.738281 105.929688 211.863281L105.929688 173.109375 95.839844 189.925781C92.976562 194.101562 87.265625 195.167969 83.089844 192.304688 82.15625 191.664062 81.347656 190.859375 80.710938 189.925781L70.617188 173.109375 70.617188 211.863281C70.617188 216.738281 66.667969 220.691406 61.792969 220.691406 56.914062 220.691406 52.964844 216.738281 52.964844 211.863281L52.964844 141.242188C52.964844 136.367188 56.917969 132.414062 61.792969 132.417969 64.890625 132.417969 67.761719 134.039062 69.355469 136.695312L88.273438 168.21875 107.191406 136.695312C109.703125 132.515625 115.128906 131.167969 119.304688 133.679688 121.960938 135.273438 123.582031 138.144531 123.585938 141.242188L123.585938 211.863281C123.585938 216.738281 119.632812 220.691406 114.757812 220.691406zM167.722656 220.691406L141.242188 220.691406C136.367188 220.691406 132.414062 216.738281 132.414062 211.863281L132.414062 141.242188C132.414062 136.367188 136.367188 132.414062 141.242188 132.414062L167.722656 132.414062C172.601562 132.414062 176.550781 136.367188 176.550781 141.242188 176.550781 146.117188 172.601562 150.070312 167.722656 150.070312L150.070312 150.070312 150.070312 203.035156 167.722656 203.035156C172.601562 203.035156 176.550781 206.988281 176.550781 211.863281 176.550781 216.738281 172.601562 220.691406 167.722656 220.691406zM167.722656 220.691406" fill="#808285"/><path d="M167.722656 185.378906L141.242188 185.378906C136.367188 185.378906 132.414062 181.425781 132.414062 176.550781 132.414062 171.675781 136.367188 167.722656 141.242188 167.722656L167.722656 167.722656C172.601562 167.722656 176.550781 171.675781 176.550781 176.550781 176.550781 181.425781 172.601562 185.378906 167.722656 185.378906zM229.515625 220.691406C226.15625 220.707031 223.074219 218.816406 221.574219 215.808594L203.035156 178.636719 203.035156 211.863281C203.035156 216.738281 199.082031 220.691406 194.207031 220.691406 189.332031 220.691406 185.378906 216.738281 185.378906 211.863281L185.378906 141.242188C185.324219 136.367188 189.230469 132.371094 194.105469 132.316406 197.527344 132.277344 200.660156 134.21875 202.152344 137.296875L220.6875 174.46875 220.6875 141.242188C220.6875 136.367188 224.640625 132.414062 229.515625 132.414062 234.394531 132.414062 238.34375 136.367188 238.34375 141.242188L238.34375 211.863281C238.34375 216.738281 234.394531 220.691406 229.515625 220.691406zM273.65625 220.691406C259.027344 220.691406 247.171875 208.832031 247.171875 194.207031L247.171875 141.242188C247.171875 136.367188 251.125 132.414062 256 132.414062 260.875 132.414062 264.828125 136.367188 264.828125 141.242188L264.828125 194.207031C264.828125 199.082031 268.78125 203.035156 273.65625 203.035156 278.53125 203.035156 282.484375 199.082031 282.484375 194.207031L282.484375 141.242188C282.484375 136.367188 286.4375 132.414062 291.3125 132.414062 296.1875 132.414062 300.140625 136.367188 300.140625 141.242188L300.140625 194.207031C300.136719 208.832031 288.28125 220.691406 273.65625 220.691406zM273.65625 220.691406" fill="#808285"/><path d="M317.792969 317.792969L35.308594 317.792969C30.433594 317.792969 26.484375 313.839844 26.484375 308.964844 26.484375 304.089844 30.433594 300.136719 35.308594 300.136719L317.792969 300.136719C322.667969 300.136719 326.621094 304.089844 326.621094 308.964844 326.621094 313.839844 322.667969 317.792969 317.792969 317.792969zM317.792969 370.757812L35.308594 370.757812C30.433594 370.757812 26.484375 366.804688 26.484375 361.929688 26.484375 357.054688 30.433594 353.101562 35.308594 353.101562L317.792969 353.101562C322.667969 353.101562 326.621094 357.054688 326.621094 361.929688 326.621094 366.804688 322.667969 370.757812 317.792969 370.757812zM317.792969 423.722656L35.308594 423.722656C30.433594 423.722656 26.484375 419.773438 26.484375 414.898438 26.484375 410.019531 30.433594 406.070312 35.308594 406.070312L317.792969 406.070312C322.667969 406.070312 326.621094 410.019531 326.621094 414.898438 326.621094 419.773438 322.667969 423.722656 317.792969 423.722656zM317.792969 423.722656" fill="#939598"/></svg>