<svg xmlns="http://www.w3.org/2000/svg" width="42" height="42" viewBox="0 0 512 512"><path d="M494 251h-7c-1-5-2-9-1-12 2-6 7-12 12-18 7-8 14-16 14-27 0-13-9-23-17-31l-10-13-4-17c-1-13-4-27-16-33s-24 1-36 6c-5 3-11 6-16 7h-13a8 8 0 00-2 15h19l19-8c9-5 17-9 23-7 5 3 6 12 8 22l4 21c3 6 8 12 13 17 7 7 13 14 13 21 0 5-5 11-11 18s-12 14-14 23c-2 5-1 10-1 16h-50c0-7-3-13-7-18l14-43a7 7 0 10-15-4l-10 33-10-16c-1-5 0-12 2-20 2-11 5-24-1-35-5-11-17-16-28-21-7-3-14-6-17-10-4-5-6-14-8-22-3-11-6-22-15-29-11-8-25-6-37-5-7 1-14 2-18 1-6-1-12-5-18-8-12-6-25-13-38-6-12 6-15 20-17 33l-14-9c-4-5-6-14-8-22-3-11-6-22-15-29-11-8-25-6-37-5-7 1-14 2-18 1-6-1-12-5-18-8C76 3 63-4 50 3 37 9 35 24 33 38l-4 18-11 14c-8 9-18 20-18 34 0 11 8 20 15 29 6 6 11 12 13 19 1 5 0 12-2 20-2 11-5 24 1 35 6 10 17 16 28 21 7 3 14 6 17 10 3 3 4 8 6 13H18c-10 0-19 8-18 18 2 28 9 54 22 79a7 7 0 1013-7c-12-23-19-47-20-73 0-1 1-2 3-2h476c2 0 3 1 3 2a174 174 0 01-174 165H189c-53 0-101-23-135-65a7 7 0 10-12 10c24 29 55 49 89 60v22c0 29 23 52 52 52h146c29 0 52-23 52-52v-21a188 188 0 00131-170c1-10-8-18-18-18zm-319 0a524 524 0 01-69-156 8 8 0 00-15 4 538 538 0 0066 152H94c-3-8-5-16-10-22-6-7-15-11-23-15-9-4-18-8-21-14s-1-16 1-25 4-19 1-27c-2-10-9-17-15-25-6-7-12-14-12-19 0-8 7-16 14-24 5-5 11-11 14-18s4-15 5-22c1-11 3-21 9-24s15 2 25 7c6 3 13 7 20 8 7 2 16 1 23 0 11-1 21-3 27 2 5 3 7 12 9 21 3 10 5 19 11 27 6 7 15 11 23 15 9 4 18 8 21 14s1 16-1 25-3 19-1 27l5 11a64 64 0 00-31 78h-13zm117 0h-87a49 49 0 1187 0zm53 0h-36a64 64 0 00-18-70l10-1a49 49 0 0144 71zm16 0a64 64 0 00-86-80 64 64 0 00-42-4l-5-9c-1-5 0-12 2-20 2-11 5-24-1-35-3-7-10-12-17-15 2-11 4-24 10-27s15 2 25 7c6 3 13 7 20 8 7 2 16 1 23 0 11-1 21-3 27 2 5 3 7 12 9 21 3 10 5 19 11 27 6 7 15 11 23 15 9 4 18 8 21 14s1 16-1 25-3 19-1 27c2 9 9 17 15 25 6 7 12 13 12 19zm5 209c0 20-17 37-37 37H183c-20 0-37-17-37-37v-17c14 3 28 5 43 5h134c15 0 29-2 43-5v17z"/></svg>