<svg xmlns="http://www.w3.org/2000/svg" width="42" height="42" viewBox="0 0 495.9 495.9"><path d="M492 274l-1-1-17-18c9-14 11-33 4-49l1-1h1l1-2 2-2v-2-33-1c1-4-1-8-4-9L248 24c-2-2-5-2-8 0L10 156c-4 1-5 5-5 9v34l1 2 1 1v1l2 2h1v1c-6 14-5 31 2 45l-9 14c-3 4-4 9-3 13s4 8 8 11l2 2a9 9 0 00-5 9v34l1 2 1 1v2l2 1h1l46 27v29c0 5 4 9 9 9h2l40-9 133 76 4 1 5-1 146-84 53 8h1c5 0 9-3 9-8v-35l21-13h1l1-1 2-3v-2-31l7-5c7-6 8-16 2-24zM244 41l213 122-213 122L31 163 244 41zm222 137v15L253 315v-15l213-122zm-444 0l214 122v15L22 193v-15zm34 170l-34-20v-15l6 3 1 8c2 7 9 13 17 13h10v11zm0-28H46l-3-12-3-13c-1-4-4-8-7-10l-16-10 8-12 31 18v39zm18 66v-95l118 68-118 27zm57 4l19-4 3 1 4 13 5 8-31-18zm105 60l-69-39h10l18-4 4 14a17 17 0 0026 10l2-1 9 5v15zm17 0v-15l3-2 2 1c4 2 9 3 13 1 5-1 8-4 10-8l5-10v-1l6-16 19 10 10 1-68 39zm65-56l-19-9a17 17 0 00-23 10l-6 15-4 9-22-11c-6-3-12-2-17 1l-12 8-3-14c-2-9-12-15-21-13l-18 5-4-13 45-10 17 10c8 4 18 4 26 0l20-11 53 8-12 15zm14 11v-1l17-22 19 2-36 21zm108-27l-140-21 140-81v102zm-192-11c-2 2-5 2-8 0l-19-11h-1L28 245c-5-9-6-21-3-31l215 123h8l215-123c4 10 2 22-3 31L248 367zm218-39l-8 5v-9l8-7v11zm-8-26v-36l1-1 1 1 19 19-21 17z"/></svg>