<svg xmlns="http://www.w3.org/2000/svg" width="42" height="42" viewBox="0 0 512 512"><path d="M190 407c-38-13-72-38-96-71a9 9 0 10-14 10c27 36 63 63 105 77a9 9 0 005-16zM69 287a9 9 0 00-16 6l7 18a9 9 0 0015-7l-6-17zm225-180c0 13 6 26 15 36a9 9 0 0012-13 33 33 0 010-47c21-21 11-52-8-72a9 9 0 00-12 12c13 14 21 35 8 48-9 9-15 22-15 36zm-94 42c0 14 6 27 15 36a9 9 0 0012-12 33 33 0 010-48c21-20 11-52-8-71a9 9 0 00-12 12c13 13 21 35 8 47-9 10-15 23-15 36zm-89-51c0 14 5 27 15 36a9 9 0 1012-12 33 33 0 010-48c21-20 11-52-9-72a9 9 0 00-12 13c14 13 22 35 9 47-10 10-15 23-15 36z"/><path d="M411 211c1-37 5-86 15-110 12-29 48-50 62-58a23 23 0 00-19-41c-34 13-63 36-84 66-21 33-30 95-33 139a2058 2058 0 00-266 5c-71 8-77 18-77 27v11c6 62 36 120 85 160v51c0 33 81 51 162 51s162-18 162-51v-46a223 223 0 0085-176c0-8 0-20-92-28zm69 28c-23 6-47 10-70 11v-22c24 1 47 5 70 11zm-112-23c3-42 11-107 32-139 19-26 45-47 75-59a6 6 0 015 10c-20 10-56 34-70 67-15 39-17 134-17 156l-26 2 1-37zm-112 6l95 2-1 30-94 2c-120 0-200-9-225-17 25-8 105-17 225-17zm145 239c0 11-51 34-145 34s-145-23-145-34v-38a262 262 0 00290 4v34zm4-58l-2 2c-42 31-94 48-147 47-117 0-216-86-229-197 19 6 39 9 59 11a1684 1684 0 00400-11c-5 59-34 113-81 148z"/></svg>