<svg viewBox="0 0 45 45" xmlns="http://www.w3.org/2000/svg" width="45.3" height="41.3"><defs/><path class="a" d="M53.129.722C53.129.24,53.64,0,54.151,0h5.218c.5,0,.707.526.707,1.007,0,.556-.256,1.037-.707,1.037H55.474V4.586h2.271c.451,0,.707.436.707.917,0,.406-.21.887-.707.887H55.474v3.879c0,.481-.586.722-1.173.722s-1.173-.241-1.173-.722Zm0,0" transform="translate(-48)"/><path class="a" d="M157.68.707A.7.7,0,0,1,158.4,0h3.112c2.06,0,3.7.767,3.7,3.218a2.963,2.963,0,0,1-1.819,3.052l1.834,3.323a.492.492,0,0,1,.075.271,1.528,1.528,0,0,1-1.473,1.218.8.8,0,0,1-.752-.436l-2.06-4h-.992V10.27c0,.481-.587.722-1.173.722s-1.173-.241-1.173-.722Zm2.346,1.338v2.8h1.488c.842,0,1.353-.346,1.353-1.4s-.511-1.4-1.353-1.4h-1.488Zm0,0" transform="translate(-144)"/><path class="b" d="M276.307,4.586h2.255c.451,0,.707.436.707.917,0,.406-.21.887-.707.887h-2.255V8.946h4.029c.451,0,.707.481.707,1.037,0,.481-.211,1.007-.707,1.007h-5.353c-.511,0-1.023-.241-1.023-.722V.722c0-.481.511-.722,1.023-.722h5.353c.5,0,.707.526.707,1.007,0,.556-.256,1.037-.707,1.037h-4.029Zm0,0" transform="translate(-250)"/><path class="b" d="M384.936,4.586h2.255c.451,0,.707.436.707.917,0,.406-.21.887-.707.887h-2.255V8.946h4.029c.451,0,.707.481.707,1.037,0,.481-.211,1.007-.707,1.007h-5.353c-.511,0-1.023-.241-1.023-.722V.722c0-.481.511-.722,1.023-.722h5.353c.5,0,.707.526.707,1.007,0,.556-.256,1.037-.707,1.037h-4.029Zm0,0" transform="translate(-349)"/><path d="M110.493,204.074H74.319a1.327,1.327,0,0,1-1.327-1.327V184.225a1.327,1.327,0,0,1,1.327-1.327H99.868a2.72,2.72,0,0,1,2.479,1.608l2.889,6.453,3.424,1.4a5.075,5.075,0,0,1,3.16,4.717v5.67A1.327,1.327,0,0,1,110.493,204.074Zm0,0" transform="translate(-67 -167)" fill="#c9dff7"/><path class="d" d="M275.5,192.361l-3.424-1.4-2.889-6.453a2.72,2.72,0,0,0-2.479-1.608H256.023v21.176h21.313a1.327,1.327,0,0,0,1.327-1.327v-5.67A5.075,5.075,0,0,0,275.5,192.361Zm0,0" transform="translate(-233 -167)"/><path d="M325.788,216.3s-3.139-6.976-3.163-6.976h-5.262v5.837a1.327,1.327,0,0,0,1.327,1.327h7.2A1.291,1.291,0,0,1,325.788,216.3Zm0,0" transform="translate(-289 -191)" fill="#5877a6"/><path class="d" d="M127.774,391.674a2.78,2.78,0,1,0-2.779,2.791A2.785,2.785,0,0,0,127.774,391.674Zm0,0" transform="translate(-111 -354)"/><path d="M111.321,382.118A4.118,4.118,0,1,1,115.428,378,4.117,4.117,0,0,1,111.321,382.118Zm0-5.582A1.464,1.464,0,1,0,112.774,378,1.461,1.461,0,0,0,111.321,376.536Zm0,0" transform="translate(-98 -341)" fill="#696453"/><path d="M400.442,391.674a2.78,2.78,0,1,0-2.78,2.791A2.785,2.785,0,0,0,400.442,391.674Zm0,0" transform="translate(-360 -354)" fill="#91b6e3"/><path d="M383.989,382.118A4.118,4.118,0,1,1,388.1,378,4.117,4.117,0,0,1,383.989,382.118Zm0-5.582A1.464,1.464,0,1,0,385.442,378,1.46,1.46,0,0,0,383.989,376.536Zm0,0" transform="translate(-346 -341)" fill="#4c4a40"/><path d="M7.782,229.427H1.327a1.327,1.327,0,0,1,0-2.653H7.782a1.327,1.327,0,0,1,0,2.653Zm0,0" transform="translate(0 -207)" fill="#38b57c"/><path class="a" d="M36.945,349.431H33.319a1.327,1.327,0,1,1,0-2.653h3.626a1.327,1.327,0,1,1,0,2.653Zm0,0" transform="translate(-29 -316)"/><path class="b" d="M40.218,289.431h-6.9a1.327,1.327,0,1,1,0-2.653h6.9a1.327,1.327,0,1,1,0,2.653Zm0,0" transform="translate(-29 -261)"/></svg>