<svg xmlns="http://www.w3.org/2000/svg" width="42" height="42" viewBox="0 0 512 512"><path d="M256,16A239.99923,239.99923,0,0,0,86.29492,425.70508,239.99923,239.99923,0,1,0,425.70508,86.29492,238.42611,238.42611,0,0,0,256,16ZM414.3916,414.3916A223.99955,223.99955,0,1,1,97.6084,97.6084,223.99955,223.99955,0,1,1,414.3916,414.3916Z"/><path d="M144 360H100.04A8 8 0 0093.544 372.66992a200.20784 200.20784 0 0045.78613 45.78613A8 8 0 00152 411.96V368A8.00039 8.00039 0 00144 360zm-8 35.49316A184.04888 184.04888 0 01116.50684 376H136zM100.04 152H144a8.00039 8.00039 0 008-8V100.04A8 8 0 00139.33008 93.544 200.20784 200.20784 0 0093.544 139.33008 8 8 0 00100.04 152zM136 116.50684V136H116.50684A184.04888 184.04888 0 01136 116.50684zM372.66992 93.544A8 8 0 00360 100.04V144a8.00039 8.00039 0 008 8h43.96a8 8 0 006.49609-12.66992A200.20784 200.20784 0 00372.66992 93.544zM376 136V116.50684A184.04888 184.04888 0 01395.49316 136zM411.96 360H368a8.00039 8.00039 0 00-8 8v43.96a8.00059 8.00059 0 0012.66992 6.49609 200.20784 200.20784 0 0045.78613-45.78613A8 8 0 00411.96 360zM376 395.49316V376h19.49316A184.04888 184.04888 0 01376 395.49316zM256 296a24 24 0 1024 24A24.0275 24.0275 0 00256 296zm0 32a8 8 0 118-8A8.00917 8.00917 0 01256 328zM320 176a24 24 0 1024 24A24.0275 24.0275 0 00320 176zm0 32a8 8 0 118-8A8.00917 8.00917 0 01320 208z"/><circle cx="312" cy="304" r="16"/><circle cx="192" cy="208" r="16"/><circle cx="320" cy="264" r="8"/><path d="M367.085,155.77051a34.85569,34.85569,0,0,0-23.25732-10.11988A8.02826,8.02826,0,0,0,344,144V80a8.00039,8.00039,0,0,0-8-8H272a8.00039,8.00039,0,0,0-8,8v30.37476l-1.94434-2.26831A34.62137,34.62137,0,0,0,248,98.249V80a8.00039,8.00039,0,0,0-8-8H176a8.00039,8.00039,0,0,0-8,8v64a8.00039,8.00039,0,0,0,8,8h1.9126L171.832,165.68164a18.65036,18.65036,0,0,1-6.70508,7.95215L152,182.3855V176a8.00039,8.00039,0,0,0-8-8H80a8.00039,8.00039,0,0,0-8,8v64a8.00039,8.00039,0,0,0,8,8h47.37549a34.41572,34.41572,0,0,0,6.4917,6.40039A18.54354,18.54354,0,0,1,140.52563,264H80a8.00039,8.00039,0,0,0-8,8v64a8.00039,8.00039,0,0,0,8,8h53.478a34.6623,34.6623,0,0,0,29.189,16H176a8.00039,8.00039,0,0,0-8,8v64a8.00039,8.00039,0,0,0,8,8h64a8.00039,8.00039,0,0,0,8-8V398.61621A34.624,34.624,0,0,0,257.6543,400H264v32a8.00039,8.00039,0,0,0,8,8h64a8.00039,8.00039,0,0,0,8-8V368a8.00039,8.00039,0,0,0-8-8h21.333a34.662,34.662,0,0,0,29.189-16H432a8.00039,8.00039,0,0,0,8-8V272a8.00039,8.00039,0,0,0-8-8H374.5459a18.6276,18.6276,0,0,1,4.70215-7.93359L387.31445,248H432a8.00039,8.00039,0,0,0,8-8V176a8.00039,8.00039,0,0,0-8-8H379.31445ZM280,88h48v48H285.96484L280,129.041Zm-96,48V88h48v8h-6.66992a34.69525,34.69525,0,0,0-31.67871,20.58691L185.02344,136Zm-64,86.27148V226.667a34.27427,34.27427,0,0,0,.43164,5.333H88V184h48v9.05273l-.5625.375A34.59477,34.59477,0,0,0,120,222.27148ZM88,328V280h48v2.6665l-1.06738,1.42237A34.88456,34.88456,0,0,0,128,304.88867V325.333c0,.89844.04541,1.78564.11279,2.667Zm96,96V376h32.3042L232,389.08008V424Zm144,0H280V399.65527a34.45976,34.45976,0,0,0,22.25391-12.666L311.04492,376H328Zm96-96H391.88721c.06738-.88135.11279-1.76855.11279-2.667v-7.03809a34.8448,34.8448,0,0,0-3.66016-15.5039L376.94434,280H424ZM367.93359,244.752a34.62182,34.62182,0,0,0-6.49316,40.01758l12.58887,25.17774A18.76163,18.76163,0,0,1,376,318.29492V325.333A18.68819,18.68819,0,0,1,357.333,344h-24.5166a34.49754,34.49754,0,0,0-27.07032,13.01074l-15.98632,19.9834A18.57582,18.57582,0,0,1,275.18359,384H257.6543a18.704,18.704,0,0,1-11.9502-4.32617l-33.166-27.63867A34.72882,34.72882,0,0,0,190.3457,344H162.667A18.68819,18.68819,0,0,1,144,325.333V304.88867a18.79074,18.79074,0,0,1,3.73242-11.20019l2.668-3.55567a34.66627,34.66627,0,0,0-6.93359-48.5332A18.75329,18.75329,0,0,1,136,226.667v-4.39551a18.62761,18.62761,0,0,1,8.3125-15.53125L174.002,186.94629a34.62993,34.62993,0,0,0,12.4502-14.76465L208.27246,123.085A18.68,18.68,0,0,1,225.33008,112h10.40527a18.64211,18.64211,0,0,1,14.17188,6.51855l30.49218,35.57422a34.51757,34.51757,0,0,0,31.22266,11.75684l28.31055-4.044a18.73787,18.73787,0,0,1,15.83789,5.2793l30.76172,30.76172A18.54081,18.54081,0,0,1,392,211.0459v1.9082a18.54081,18.54081,0,0,1-5.46777,13.19922ZM424,184v48H402.30762A34.42581,34.42581,0,0,0,408,212.9541v-1.9082a34.44457,34.44457,0,0,0-10.15332-24.51367L395.31445,184Z"/><path d="M185.916 313.13086a16.03014 16.03014 0 01-15.87012-17.999h0l4.249-33.99024a30.75344 30.75344 0 0120.68848-25.23535 30.40673 30.40673 0 0126.65234 3.56934l5.22071 3.48144a29.51386 29.51386 0 01-1.72852 50.18359l-31.26758 17.86719A15.99382 15.99382 0 01185.916 313.13086zm.00683-16.01465a.34635.34635 0 00-.0039.05567l31.27148-17.92383a13.514 13.514 0 00.791-22.97852l-5.22168-3.48144A14.50542 14.50542 0 00200.043 251.085a14.67269 14.67269 0 00-9.87109 12.041zM278.084 257.13086a15.99382 15.99382 0 01-7.94433-2.123l-31.26758-17.86719a29.51386 29.51386 0 01-1.72852-50.18359l5.22168-3.48144a30.39655 30.39655 0 0126.65235-3.56836 30.75132 30.75132 0 0120.6875 25.23437l4.249 33.99024h0a16.03014 16.03014 0 01-15.87012 17.999zm-18.7705-62.80371a14.50941 14.50941 0 00-8.07227 2.46094l-5.22266 3.48144a13.514 13.514 0 00.791 22.97852l31.26758 17.86718-4.249-33.98925a14.63778 14.63778 0 00-14.51464-12.79883z"/></svg>