<svg height="512" width="512" xmlns="http://www.w3.org/2000/svg"><path d="m512 271v-15c0-68.114-26.702-132.328-75.187-180.813-48.485-48.485-112.699-75.187-180.813-75.187s-132.328 26.702-180.813 75.187-75.187 112.699-75.187 180.813v15h30v32.58c-17.459 6.192-30 22.865-30 42.42s12.541 36.228 30 42.42v32.58h-30v15c0 41.907 34.093 76 76 76h360c41.907 0 76-34.093 76-76v-15h-30v-32.58c17.459-6.192 30-22.865 30-42.42s-12.541-36.228-30-42.42v-32.58zm-256-241c66.794 0 126.905 29.137 168.315 75.358-43.065 48.217-103.743 75.642-168.315 75.642s-125.25-27.425-168.315-75.642c41.41-46.221 101.521-75.358 168.315-75.358zm-187.049 99.317c48.508 52.124 115.662 81.683 187.049 81.683s138.541-29.559 187.049-81.683c21.929 32.274 35.745 70.485 38.459 111.683h-451.016c2.714-41.198 16.53-79.409 38.459-111.683zm-23.951 201.683h65.293c11.949 0 23.203 4.634 31.688 13.048l17.092 16.952h-114.073c-8.271 0-15-6.729-15-15s6.729-15 15-15zm15 60h129.323l30.25 30h-159.573zm376 91h-360c-20.115 0-37.256-12.978-43.489-31h446.979c-6.234 18.022-23.375 31-43.49 31zm-143.573-61 30.25-30h129.323v30zm174.573-60h-114.073l17.093-16.951c8.485-8.415 19.738-13.049 31.688-13.049h65.292c8.271 0 15 6.729 15 15s-6.729 15-15 15zm-15-60h-50.293c-19.915 0-38.671 7.723-52.813 21.748l-92.894 92.126-92.895-92.127c-14.141-14.024-32.897-21.747-52.812-21.747h-50.293v-30h392z"/></svg>