<svg xmlns="http://www.w3.org/2000/svg" viewBox="0 0 512.3 512.3"><path d="M510.548,293.66c-1.612-2.148-4.14-3.413-6.826-3.413h-20.418l28.268-126.85c1.033-4.662,0.125-9.543-2.517-13.521 c-2.496-3.798-6.449-6.397-10.925-7.183l-32.933-5.8c-1.459-0.23-2.944-0.257-4.41-0.081l-0.006-75.503 c0.183-4.992-1.656-9.848-5.1-13.467c-3.075-3.227-7.335-5.056-11.792-5.062h-33.358c-9.392,0.25-16.881,7.926-16.9,17.321 l-0.629,20.903l-15.446-3.616c-4.55-1.065-9.338-0.214-13.242,2.353c-3.904,2.568-6.583,6.626-7.408,11.226l-2.077,11.162 c-1.039-0.388-2.113-0.677-3.206-0.862l-36.582-6.096l0.348-9.062c0.184-4.638-1.53-9.152-4.748-12.498 c-3.217-3.346-7.66-5.237-12.302-5.235h-8.285l10.685-35.492c1.402-4.419,0.964-9.217-1.217-13.308 c-2.078-3.998-5.675-6.993-9.983-8.312L256.972,0.947c-4.354-1.391-9.086-0.967-13.123,1.176 c-4.038,2.143-7.04,5.825-8.327,10.211l-21.154,70.378l-0.813-23.457c-0.293-9.215-7.872-16.52-17.092-16.475h-34.3 c-4.634-0.007-9.073,1.87-12.296,5.2c-3.223,3.33-4.954,7.827-4.796,12.459l1.787,51.599l-38.621,6.343 c-8.796,1.437-15.017,9.383-14.301,18.267H68.255c-9.421,0.011-17.056,7.646-17.067,17.067v52.566l-8.992-6.591 c-3.54-2.662-8.007-3.779-12.383-3.096c-4.501,0.686-8.533,3.167-11.175,6.875L3.347,224.955 c-5.497,7.613-4.084,18.195,3.217,24.1l44.625,34.271v6.921h-42.4c-2.685,0-5.214,1.265-6.826,3.413 c-1.611,2.148-2.118,4.93-1.366,7.508l44.492,152.529c10.215,34.533,41.872,58.276,77.883,58.417h266.575 c36.012-0.14,67.668-23.884,77.884-58.417l44.483-152.529C512.666,298.59,512.159,295.808,510.548,293.66z M460.574,160.539 h0.215v-0.884l1.45-5.953l32.675,5.992l-29.087,130.554h-36.844L460.574,160.539z M410.689,60.655 c0.017-0.462,0.167-0.754,0.008-0.808l32.717-0.137c0.075,0.062,0.333,0.421,0.308,1.333v98.629l-20.551,83.129l-17.483-21.242 l19.484-116.424c1.541-8.933-4.125-17.525-12.942-19.629l-2.267-0.531L410.689,60.655z M373.68,94.01l25.583,5.97l9.075,2.321 l-17.031,101.784l-18.618-22.622c-3.12-3.763-7.662-6.062-12.542-6.35c-0.521-0.033-1.031,0.051-1.549,0.064L373.68,94.01z M358.639,192.289l0.867,0.012l58.559,71.155l-6.623,26.791h-11.819l-50.917-60.783l-13.033-15.25L358.639,192.289z M376.851,289.645l-0.099,0.602h-34.184l4.867-35.706L376.851,289.645z M314.379,112.362l34.435,5.739l-8.271,60.803 l-0.104,0.556l0.027,0.005l-0.108,0.797l-0.06,0.243h-0.009l-0.025,0.117l-0.075,0.333l-1.25,6.548l-15.05,14.365 c-6.531,6.092-7.1,16.249-1.292,23.033l7.732,9.228l-10.587,56.118h-12.204L314.379,112.362z M298.339,85.443l-7.875,204.8 h-34.142l7.875-204.8H298.339z M251.789,17.205l32.633,10.654L272.22,68.376h-8.015c-9.179-0.023-16.725,7.235-17.058,16.408 l-0.354,9.196h-17.996L251.789,17.205z M246.137,111.047l-6.892,179.2h-17.684l-6.211-179.2H246.137z M196.464,59.847 l8.025,230.4h-34.383l-7.942-230.4H196.464z M147.456,129.235l5.578,161.011h-26.369l-15.659-155.025L147.456,129.235z M68.255,153.714h27.387l9.339,91.999l-36.726-26.922V153.714z M17.181,234.947l14.883-21.529l75.237,55.154l2.201,21.676h-21.25 L17.181,234.947z M451.047,448.922c-8.065,27.269-33.064,46.018-61.5,46.125H122.972c-28.436-0.108-53.434-18.856-61.5-46.125 L20.164,307.314h472.183L451.047,448.922z"/><path d="M94.581 433.23c4.848 16.367 19.855 27.618 36.925 27.683h47.683c4.713 0 8.533-3.821 8.533-8.533 0-4.713-3.82-8.533-8.533-8.533h-47.683c-9.437-.017-17.754-6.198-20.492-15.229L93.83 364.826c-1.227-4.552-5.911-7.247-10.463-6.021-4.552 1.227-7.247 5.911-6.021 10.463L94.581 433.23zM213.322 460.914h8.533c4.713 0 8.533-3.821 8.533-8.533 0-4.713-3.82-8.533-8.533-8.533h-8.533c-4.713 0-8.533 3.821-8.533 8.533C204.789 457.093 208.609 460.914 213.322 460.914z"/></svg>